<?xml version="1.0" encoding="UTF-8"?>
<svg id="Layer_2" data-name="Layer 2" xmlns="http://www.w3.org/2000/svg" viewBox="0 0 1024 1024">
  <defs>
    <style>
      .cls-1 {
        fill: #000000;
      }

      .cls-2 {
        fill: #FFFFFF;
      }
    </style>
  </defs>
  <g id="Layer_1-2" data-name="Layer 1">
    <g>
      <rect class="cls-1" width="1024" height="1024"/>
      <path class="cls-2" d="M934.52,731.44v10.57h-128.94v-273.88c0-27.82-26-63.82-54.41-68.23-36.74-5.7-72.75,3.49-88.76,39.19-2.57,5.74-9.03,25.85-9.03,31.15v271.76h-126.82v-261.19c0-17.26-10.14-49.43-22.35-62.23-28.45-29.81-88.46-26.23-113.8,6.37-7.95,10.23-18.15,37.03-18.15,49.52v267.53h-126.82v-154.39l-156.42,154.39v-450.47l156.42,152.27v-152.27h126.82v61.33c4.95,1.28,3.54-1.16,4.85-2.69,16.27-18.96,29.12-34.82,51.58-47.66,67.61-38.65,167.16-22,204.62,50.31,85.76-107.87,284.85-96.88,298.82,62.7,8.64,98.71-5.77,208.84.12,308.75l2.27,7.15Z"/>
    </g>
  </g>
</svg>